<svg width="180" height="180" viewBox="0 0 180 180" fill="none" xmlns="http://www.w3.org/2000/svg">
<path d="M122.458 69.0047C139.753 85.5578 151.697 104.351 157.059 121.315C162.434 138.318 161.136 153.233 152.387 162.374C143.638 171.514 128.794 173.464 111.572 168.838C94.39 164.224 75.0918 153.114 57.7975 136.561C40.5031 120.008 28.5587 101.214 23.1967 84.2509C17.8221 67.2473 19.1202 52.3323 27.8688 43.192C36.6174 34.0516 51.4613 32.1019 68.6838 36.727C85.8658 41.3412 105.164 52.4515 122.458 69.0047Z" stroke="#D8FE05" stroke-opacity="0.8" stroke-width="2"/>
<path d="M82.2963 8.67251L89.1245 22L95.9526 8.67251L97.1608 23.5985L108.569 13.8986L103.974 28.1508L118.226 23.555L108.526 34.9636L123.452 36.1718L110.124 43L123.452 49.8282L108.526 51.0364L118.226 62.445L103.974 57.8492L108.569 72.1014L97.1608 62.4015L95.9526 77.3275L89.1245 64L82.2963 77.3275L81.0881 62.4015L69.6795 72.1014L74.2752 57.8492L60.023 62.445L69.723 51.0364L54.797 49.8282L68.1245 43L54.797 36.1718L69.723 34.9636L60.023 23.555L74.2752 28.1508L69.6795 13.8986L81.0881 23.5985L82.2963 8.67251Z" fill="#D8FE05"/>
</svg>
